<?xml version="1.0" standalone="no"?>
<!DOCTYPE svg PUBLIC "-//W3C//DTD SVG 20010904//EN"
 "http://www.w3.org/TR/2001/REC-SVG-20010904/DTD/svg10.dtd">
<svg version="1.0" xmlns="http://www.w3.org/2000/svg"
 width="5154.000000pt" height="5154.000000pt" viewBox="0 0 5154.000000 5154.000000"
 preserveAspectRatio="xMidYMid meet">
<metadata>
Created by potrace 1.11, written by Peter Selinger 2001-2013
</metadata>
<g transform="translate(0.000000,5154.000000) scale(0.100000,-0.100000)"
fill="#000000" stroke="none">
<path d="M23150 41800 c-107 -5 -210 -13 -229 -19 -19 -6 -44 -8 -55 -5 -12 3
-69 -6 -128 -20 -58 -14 -130 -28 -159 -31 -30 -4 -79 -13 -109 -20 -30 -8
-66 -16 -80 -19 -27 -6 -326 -75 -350 -82 -8 -2 -46 -11 -85 -20 -38 -8 -79
-18 -90 -20 -11 -3 -30 -7 -43 -10 -12 -2 -40 -13 -61 -25 -21 -11 -47 -22
-57 -24 -58 -13 -139 -37 -214 -63 -47 -16 -97 -32 -112 -36 -16 -3 -49 -20
-75 -36 -26 -17 -52 -30 -59 -30 -7 0 -25 -6 -41 -14 -15 -8 -44 -21 -63 -30
-123 -53 -160 -73 -205 -107 -27 -20 -79 -47 -115 -60 -36 -12 -77 -31 -92
-43 -31 -24 -131 -97 -203 -147 -61 -42 -180 -130 -220 -162 -16 -13 -88 -66
-160 -117 -71 -51 -155 -116 -185 -145 -30 -29 -84 -74 -120 -100 -72 -52
-160 -131 -160 -144 0 -4 -10 -13 -23 -18 -13 -6 -45 -37 -73 -68 -27 -32
-103 -111 -168 -177 l-119 -119 -85 21 c-46 12 -108 23 -136 26 -28 3 -62 7
-76 10 -57 11 -187 27 -215 26 -329 -7 -436 -17 -615 -57 -130 -28 -344 -77
-360 -81 -8 -2 -62 -15 -120 -28 -288 -67 -348 -82 -361 -92 -8 -6 -39 -16
-69 -23 -30 -6 -84 -26 -120 -42 -36 -17 -88 -42 -116 -55 -28 -13 -59 -24
-68 -24 -10 0 -32 -11 -49 -24 -18 -14 -45 -27 -60 -30 -24 -4 -98 -45 -142
-78 -5 -4 -55 -38 -110 -74 -55 -37 -114 -77 -131 -90 -17 -13 -33 -22 -35
-20 -2 2 -45 -26 -95 -62 -51 -37 -102 -74 -114 -82 -12 -8 -28 -20 -34 -25
-6 -6 -49 -37 -96 -70 -47 -33 -114 -87 -149 -120 -257 -240 -325 -306 -351
-340 -8 -11 -27 -37 -42 -57 -15 -20 -45 -53 -66 -74 -21 -22 -46 -52 -57 -69
-10 -16 -24 -34 -31 -38 -11 -6 -104 -129 -174 -230 -8 -12 -51 -72 -95 -134
-44 -61 -107 -149 -139 -195 -32 -45 -65 -96 -72 -114 -7 -17 -20 -36 -28 -43
-8 -7 -20 -29 -27 -49 -6 -20 -21 -50 -33 -67 -12 -16 -28 -42 -35 -57 -8 -16
-18 -28 -23 -28 -4 0 -8 -5 -8 -12 0 -6 -17 -46 -39 -87 -21 -42 -42 -92 -46
-111 -4 -19 -21 -62 -36 -94 -16 -33 -29 -64 -29 -70 0 -5 -8 -28 -19 -50 -10
-23 -21 -50 -24 -61 -7 -26 -45 -134 -57 -160 -5 -11 -21 -65 -35 -120 -15
-55 -33 -118 -40 -140 -8 -22 -23 -78 -34 -125 -11 -47 -39 -164 -62 -260 -22
-96 -42 -179 -43 -185 -4 -18 -30 -130 -31 -135 -4 -12 -15 -78 -20 -114 -3
-21 -7 -48 -10 -60 -2 -12 -7 -38 -10 -60 -3 -21 -7 -42 -10 -45 -2 -4 -7 -36
-11 -72 -4 -35 -10 -73 -14 -84 -3 -11 -8 -63 -9 -116 -3 -131 -8 -198 -16
-234 -4 -16 -6 -43 -5 -60 1 -16 4 -77 6 -135 10 -230 14 -288 26 -365 7 -44
12 -87 11 -95 -1 -8 2 -33 7 -55 19 -86 21 -102 25 -155 3 -51 10 -90 30 -162
8 -31 14 -27 -110 -74 -38 -14 -108 -44 -153 -65 -46 -22 -86 -39 -89 -39 -3
0 -24 -9 -47 -19 -135 -64 -194 -91 -201 -91 -5 0 -16 -7 -25 -15 -15 -13
-200 -112 -218 -116 -20 -5 -62 -27 -102 -55 -25 -18 -67 -42 -95 -55 -27 -13
-74 -40 -104 -61 -30 -21 -58 -38 -62 -38 -8 0 -380 -239 -389 -251 -3 -3 -39
-29 -80 -57 -41 -28 -132 -93 -202 -144 -70 -51 -137 -100 -149 -108 -12 -8
-85 -62 -162 -120 -77 -58 -152 -114 -166 -124 -14 -11 -47 -38 -73 -60 -26
-23 -77 -66 -114 -96 -244 -201 -639 -584 -804 -780 -39 -46 -115 -131 -162
-183 -27 -28 -48 -54 -48 -59 0 -5 -17 -27 -38 -51 -21 -23 -49 -58 -62 -77
-13 -19 -30 -39 -36 -45 -7 -5 -53 -66 -103 -135 -50 -69 -94 -130 -99 -135
-5 -6 -17 -24 -28 -40 -10 -17 -21 -32 -24 -35 -6 -5 -167 -226 -200 -273 -8
-12 -37 -53 -65 -92 -28 -38 -56 -81 -63 -95 -13 -27 -16 -31 -107 -166 -33
-49 -68 -107 -79 -129 -10 -22 -32 -59 -47 -82 -16 -23 -45 -72 -64 -109 -20
-37 -47 -82 -60 -100 -14 -18 -25 -36 -25 -39 0 -14 -105 -222 -132 -262 -15
-23 -28 -47 -28 -53 0 -6 -10 -30 -22 -53 -12 -23 -23 -44 -23 -47 -1 -3 -10
-23 -20 -45 -10 -22 -19 -42 -19 -45 -1 -3 -9 -21 -18 -40 -48 -102 -118 -271
-131 -315 -8 -27 -29 -82 -45 -121 -16 -40 -37 -98 -47 -130 -9 -32 -25 -76
-35 -98 -10 -23 -22 -57 -25 -76 -4 -19 -11 -39 -15 -45 -5 -5 -8 -12 -8 -15
0 -10 -23 -96 -32 -115 -4 -11 -11 -32 -14 -46 -6 -30 -23 -38 -141 -69 -44
-12 -91 -25 -105 -30 -42 -14 -199 -62 -212 -64 -7 -1 -30 -10 -51 -19 -21 -9
-57 -22 -80 -28 -23 -6 -85 -28 -137 -49 -98 -39 -127 -49 -135 -50 -3 0 -19
-7 -35 -15 -17 -9 -30 -13 -30 -11 0 3 -60 -22 -132 -56 -73 -33 -137 -61
-143 -62 -5 -1 -30 -11 -55 -23 -121 -56 -181 -83 -187 -83 -3 0 -14 -6 -22
-14 -19 -17 -176 -100 -210 -111 -13 -4 -54 -26 -90 -50 -36 -23 -91 -54 -121
-69 -30 -15 -57 -31 -60 -36 -3 -5 -35 -24 -71 -43 -84 -45 -431 -267 -472
-302 -7 -6 -86 -64 -177 -129 -91 -66 -205 -149 -255 -186 -49 -36 -115 -83
-145 -105 -30 -22 -64 -47 -75 -56 -11 -10 -54 -45 -95 -78 -41 -33 -93 -76
-115 -96 -22 -19 -60 -50 -85 -68 -25 -18 -61 -48 -81 -67 -20 -19 -75 -71
-123 -115 -115 -106 -371 -362 -471 -471 -44 -48 -94 -102 -110 -118 -17 -17
-50 -57 -74 -89 -24 -32 -61 -77 -82 -100 -22 -23 -42 -50 -45 -59 -3 -10 -9
-18 -13 -18 -5 0 -28 -26 -52 -57 -24 -32 -49 -62 -55 -68 -6 -5 -22 -26 -35
-45 -13 -19 -27 -39 -31 -45 -17 -20 -135 -183 -208 -285 -41 -58 -78 -109
-83 -115 -39 -50 -117 -162 -187 -265 -46 -69 -87 -126 -92 -128 -4 -2 -8 -9
-8 -15 0 -7 -19 -41 -43 -77 -24 -36 -58 -91 -76 -124 -17 -32 -44 -77 -59
-100 -15 -22 -36 -60 -47 -83 -10 -24 -22 -43 -27 -43 -4 0 -8 -7 -8 -15 0 -8
-4 -15 -8 -15 -5 0 -21 -26 -36 -57 -16 -32 -44 -92 -64 -133 -20 -41 -51 -99
-69 -127 -18 -29 -30 -53 -27 -53 3 0 -9 -25 -25 -55 -17 -30 -28 -55 -26 -55
2 0 -7 -21 -20 -46 -14 -26 -25 -51 -25 -55 0 -5 -16 -43 -36 -86 -57 -122
-70 -153 -94 -223 -24 -72 -35 -100 -56 -145 -7 -16 -27 -70 -43 -120 -16 -49
-35 -103 -42 -120 -14 -35 -13 -30 -23 -75 -5 -19 -12 -39 -16 -45 -5 -5 -9
-14 -9 -20 -2 -15 -21 -88 -28 -105 -8 -19 -55 -190 -94 -340 l-31 -115 -192
-195 c-312 -317 -399 -424 -828 -1024 -48 -66 -91 -126 -97 -132 -7 -9 -128
-191 -198 -300 -7 -10 -25 -41 -39 -69 -15 -27 -29 -52 -33 -55 -9 -8 -172
-320 -177 -340 -1 -7 -18 -45 -45 -105 -12 -27 -23 -52 -24 -55 -1 -3 -6 -16
-12 -30 -6 -14 -20 -54 -33 -90 -12 -36 -25 -72 -28 -80 -3 -8 -6 -18 -7 -22
-2 -5 -4 -10 -5 -13 -1 -3 -3 -8 -4 -12 -1 -5 -5 -14 -9 -20 -5 -7 -6 -13 -2
-13 3 0 1 -9 -5 -21 -6 -11 -13 -28 -15 -37 -2 -9 -15 -57 -30 -107 -22 -74
-48 -176 -71 -277 -6 -25 -6 -27 -64 -273 -28 -121 -53 -227 -55 -235 -2 -8
-17 -73 -33 -145 -82 -349 -96 -478 -89 -815 5 -244 10 -298 52 -530 3 -14 21
-92 40 -175 20 -82 56 -238 81 -345 25 -107 59 -251 75 -320 17 -69 32 -132
34 -140 2 -8 4 -16 5 -17 2 -2 3 -6 4 -10 19 -84 125 -292 188 -368 5 -5 87
-118 183 -250 209 -289 282 -364 540 -550 99 -71 182 -133 183 -137 2 -4 9 -8
17 -8 7 0 18 -7 25 -15 35 -42 352 -231 397 -236 5 0 19 -7 33 -14 24 -13 120
-45 185 -61 37 -9 29 -7 215 -52 l155 -38 6 -154 c7 -159 18 -233 64 -425 15
-60 28 -117 30 -125 2 -8 9 -37 15 -65 6 -27 14 -61 16 -75 3 -14 7 -33 10
-42 3 -9 7 -25 9 -35 2 -10 16 -67 30 -128 15 -60 28 -117 30 -125 24 -107 58
-239 75 -290 24 -71 123 -275 146 -301 8 -8 14 -19 14 -23 0 -4 5 -12 11 -19
9 -11 88 -118 137 -186 26 -37 99 -137 159 -218 29 -40 53 -77 53 -82 0 -5 3
-11 8 -13 4 -1 28 -30 54 -63 64 -80 57 -72 129 -140 35 -33 87 -77 114 -98
28 -20 55 -40 60 -44 82 -64 456 -329 505 -357 73 -43 164 -73 330 -111 63
-14 149 -34 190 -44 41 -11 120 -29 175 -41 55 -12 114 -26 130 -31 17 -4 41
-11 55 -14 14 -2 71 -15 127 -27 102 -22 103 -23 190 -4 118 24 104 21 223 50
58 13 164 39 235 55 416 98 427 101 474 133 25 18 51 36 56 41 25 20 221 160
231 164 7 2 37 -12 67 -33 30 -20 58 -36 61 -35 3 0 77 -36 164 -81 213 -110
210 -109 427 -204 72 -31 153 -63 180 -71 28 -8 54 -19 60 -24 5 -5 15 -9 23
-9 7 0 38 -12 68 -26 30 -14 60 -27 67 -28 10 -2 49 -14 107 -32 8 -3 17 -5
20 -6 3 0 16 -6 30 -13 26 -15 214 -75 232 -75 5 0 24 -6 41 -14 49 -22 412
-115 722 -185 92 -21 298 -69 325 -76 59 -15 204 -47 245 -55 28 -5 106 -21
175 -35 220 -46 555 -91 860 -117 208 -17 1005 -17 1195 0 464 43 718 82 1145
177 113 25 216 48 230 51 14 2 50 11 81 19 48 12 280 66 350 81 13 3 33 7 44
9 11 3 88 23 170 45 83 22 158 42 168 45 67 16 434 132 457 144 9 5 31 12 50
16 19 4 40 11 45 14 6 4 33 16 60 25 45 16 83 31 140 56 11 5 31 12 45 15 29
8 51 18 174 74 49 23 100 43 113 45 13 3 30 12 39 20 8 9 19 16 24 16 9 0 163
73 190 89 8 5 69 36 135 68 66 33 139 72 163 87 24 15 51 30 60 33 9 4 51 28
93 54 42 26 98 59 125 74 27 14 56 31 65 37 13 9 25 7 52 -5 19 -9 40 -17 45
-17 6 0 23 -5 39 -12 15 -6 30 -12 33 -13 3 -1 12 -5 20 -8 30 -14 307 -110
350 -122 25 -7 58 -18 73 -24 15 -6 42 -13 58 -16 17 -3 38 -10 47 -15 9 -5
44 -17 77 -25 33 -9 85 -23 115 -32 30 -8 62 -17 70 -18 16 -4 440 -105 545
-130 33 -8 101 -24 150 -36 50 -11 95 -22 100 -23 6 -1 37 -8 70 -15 33 -7 85
-19 115 -27 230 -59 853 -144 1208 -164 389 -23 1051 -3 1367 39 39 6 97 13
130 16 57 6 333 51 365 60 8 2 33 6 55 9 64 10 147 27 390 82 11 3 29 7 40 9
11 3 29 7 40 10 77 18 204 47 224 51 14 3 28 7 31 9 4 2 22 7 41 10 19 3 42 8
51 11 9 3 25 1 35 -4 10 -6 37 -18 61 -27 23 -10 42 -21 42 -25 0 -4 21 -15
48 -25 26 -10 65 -28 88 -40 59 -33 76 -41 104 -53 14 -6 78 -36 142 -66 64
-31 122 -56 129 -56 6 0 32 -11 58 -24 25 -13 60 -29 76 -35 17 -7 53 -24 80
-38 28 -14 81 -34 118 -44 37 -9 80 -25 95 -35 15 -10 33 -19 41 -20 8 -2 35
-9 60 -17 25 -9 66 -20 91 -27 49 -12 50 -12 160 -59 41 -18 111 -43 155 -56
44 -13 98 -32 120 -41 22 -10 48 -19 58 -21 10 -2 43 -12 75 -23 31 -12 73
-23 92 -26 19 -3 49 -12 65 -19 17 -8 46 -17 65 -21 19 -3 41 -10 50 -15 8 -5
41 -15 73 -24 128 -34 173 -46 187 -52 8 -3 20 -7 25 -8 6 -2 93 -24 195 -49
102 -26 194 -48 205 -51 11 -2 72 -16 135 -31 63 -14 140 -32 170 -39 30 -7
107 -25 170 -40 63 -15 122 -28 130 -30 8 -2 62 -15 120 -28 58 -14 116 -25
130 -24 14 0 63 -7 110 -17 232 -49 277 -58 305 -62 86 -10 256 -36 300 -44
28 -6 97 -20 155 -31 58 -12 125 -23 150 -26 25 -2 63 -8 85 -13 22 -4 77 -9
121 -9 45 -1 103 -6 130 -11 27 -6 74 -12 104 -15 30 -3 71 -10 90 -15 19 -5
69 -9 110 -9 109 0 280 -10 291 -16 12 -8 102 -13 384 -20 329 -9 405 -13 442
-24 17 -5 33 -8 35 -5 5 4 136 17 168 16 98 -4 201 -5 300 -4 63 1 165 2 225
1 61 -1 142 2 180 5 39 3 129 8 200 11 72 3 175 8 230 10 55 3 147 7 205 9 58
2 134 8 170 14 36 6 115 14 175 17 61 3 131 11 158 17 26 5 59 7 73 4 14 -4
60 0 103 9 42 8 110 17 152 19 42 2 82 7 88 11 10 6 66 13 231 31 19 2 60 6
90 8 30 3 84 10 120 16 36 6 75 11 88 11 12 0 59 8 104 18 45 11 86 17 90 15
4 -3 47 2 95 11 197 36 250 45 293 48 25 3 81 11 125 20 44 9 116 23 160 32
184 35 386 77 465 96 47 11 94 23 105 25 11 2 70 15 130 28 61 14 126 27 145
30 29 3 122 23 200 41 8 2 47 11 85 20 39 9 126 30 195 47 69 16 136 32 150
34 14 3 43 10 65 16 41 10 59 14 109 24 16 2 34 8 39 11 5 3 84 25 176 48 91
24 229 59 306 80 77 20 147 38 155 40 95 23 225 56 265 68 28 9 84 25 125 36
41 12 83 25 92 31 9 5 35 13 58 16 22 4 43 11 46 15 3 5 15 9 28 9 12 0 27 5
34 12 7 7 12 9 12 5 0 -4 8 -3 19 2 10 6 33 13 52 16 19 3 48 12 65 20 17 8
55 20 84 26 29 6 67 19 84 29 17 11 63 26 101 35 39 9 81 22 95 29 14 7 39 16
55 20 56 13 140 38 195 59 30 12 57 22 60 23 3 0 12 3 20 7 8 3 42 13 75 22
33 9 67 20 75 25 9 4 30 11 48 15 18 3 32 10 32 14 0 4 21 13 48 20 121 31
139 37 162 54 13 9 30 17 36 17 10 0 56 19 94 39 9 5 30 12 47 15 17 4 48 16
69 27 21 10 45 19 54 19 8 0 30 9 48 20 17 11 46 22 63 25 17 3 49 15 70 26
21 10 39 17 39 13 0 -4 6 -2 13 4 6 5 28 13 47 17 40 8 118 41 140 60 8 7 39
18 68 25 28 6 52 16 52 21 0 4 19 13 43 19 23 6 71 25 107 42 36 16 74 34 85
38 75 29 114 47 145 67 19 12 49 25 65 29 17 3 46 15 65 25 19 10 71 34 115
55 44 20 98 45 120 56 50 24 168 68 184 68 7 0 27 11 45 25 18 14 36 25 39 25
3 0 32 16 64 35 32 19 66 35 76 35 11 0 31 8 45 19 15 10 45 24 67 32 22 7 54
23 72 36 17 13 36 23 41 23 8 0 68 30 152 76 19 10 37 22 38 27 2 4 11 7 19 7
9 0 32 10 52 22 20 13 76 41 126 63 49 23 127 68 172 100 45 33 91 67 103 75
274 191 400 305 526 479 49 68 119 165 157 217 37 51 67 97 67 102 0 9 27 75
65 157 7 17 23 73 35 125 12 52 26 113 31 135 5 22 11 49 13 60 2 11 11 47 19
80 9 33 18 71 21 85 4 23 40 175 53 225 12 46 14 281 3 325 -7 25 -14 54 -16
65 -3 18 -26 116 -99 425 -14 58 -32 132 -41 165 -8 33 -20 80 -26 105 -6 25
-22 60 -36 78 -13 18 -25 40 -26 48 -1 8 -31 54 -66 102 -238 327 -251 344
-295 388 -23 23 -66 58 -96 79 -30 21 -56 41 -59 44 -3 3 -27 21 -55 40 -27
19 -78 55 -112 80 l-62 45 104 76 c56 41 147 107 201 145 53 39 105 77 114 85
9 8 38 31 66 49 27 19 51 38 54 41 3 4 32 28 65 55 33 26 62 51 65 55 3 3 23
19 45 35 22 16 50 38 61 49 12 12 41 37 65 56 71 57 160 142 384 366 230 230
283 287 335 354 19 24 46 56 60 70 14 14 44 48 65 75 22 28 42 52 46 55 4 3
24 28 44 55 21 28 42 52 46 55 4 3 51 64 103 135 53 72 99 135 104 140 4 6 34
46 65 90 31 44 99 139 151 210 116 159 225 315 250 358 10 18 21 34 25 37 11
9 47 64 54 83 4 9 24 43 45 75 21 31 41 64 45 74 3 9 28 53 56 98 28 45 51 85
51 89 0 4 13 28 29 53 16 25 62 110 103 189 41 79 79 153 85 164 6 11 20 41
32 68 11 26 31 68 42 95 37 82 70 156 83 187 7 17 22 50 34 75 11 25 23 56 27
70 3 14 18 52 31 85 14 33 29 69 34 80 4 11 17 47 28 80 12 33 36 105 55 160
19 55 45 134 57 175 12 41 24 82 27 90 3 8 18 60 34 115 15 55 35 127 44 160
14 48 72 286 90 369 21 92 48 208 57 241 5 22 12 49 14 60 2 11 15 65 27 120
l24 100 152 78 c85 42 157 77 161 77 5 0 35 17 67 39 32 21 78 48 103 59 25
12 64 34 88 50 l43 29 142 -34 c78 -18 151 -35 162 -37 11 -3 79 -18 150 -35
159 -37 184 -38 322 -5 59 14 119 28 133 30 14 3 39 9 55 14 17 5 41 11 55 14
27 5 114 25 250 58 98 23 112 26 143 33 85 18 127 30 162 48 39 19 459 317
542 385 24 19 87 95 140 169 54 75 138 190 186 257 48 66 95 137 103 156 9 19
42 150 75 290 169 720 160 669 133 774 -9 33 -17 68 -19 76 -2 8 -10 47 -19
86 -8 40 -17 76 -18 82 -3 10 6 23 100 152 162 222 259 361 335 475 47 72 90
135 94 140 26 33 93 143 121 200 8 17 25 43 36 60 22 32 30 44 66 115 13 25
36 63 50 85 15 22 50 87 78 145 28 58 61 121 71 140 17 29 61 122 146 305 30
65 55 124 55 130 0 4 6 21 14 38 49 114 66 156 66 164 0 9 17 51 50 128 11 25
24 70 20 70 -1 0 5 18 15 40 20 48 94 270 99 301 3 12 9 31 14 41 9 18 43 152
42 166 0 4 6 20 13 35 8 15 20 54 27 87 8 33 15 63 16 68 1 4 2 13 3 20 0 7
45 44 99 82 53 38 102 73 107 78 6 4 80 58 165 119 178 128 314 258 417 398
117 159 358 493 378 525 11 17 22 32 26 35 3 3 21 31 40 63 18 31 37 57 41 57
5 0 8 4 8 10 0 5 17 38 38 72 75 122 246 448 235 448 -2 0 7 21 21 48 14 26
46 97 71 157 26 61 55 128 65 150 105 232 374 1053 414 1265 2 14 16 75 31
135 14 61 34 148 45 195 11 47 38 161 60 254 51 215 51 259 5 449 -12 50 -78
335 -81 350 -2 10 -6 27 -9 37 -3 10 -7 27 -9 37 -2 10 -11 45 -19 78 -8 33
-22 96 -32 140 -16 76 -30 117 -48 140 -4 6 -92 127 -195 270 l-187 260 -115
82 c-63 45 -119 86 -125 91 -21 17 -264 191 -281 201 -51 29 -54 2 47 421 37
152 36 179 -11 377 -42 177 -82 347 -122 518 -39 171 -58 235 -86 293 -25 51
-163 248 -374 537 -88 120 -178 206 -333 318 -77 56 -144 105 -150 110 -5 5
-68 51 -140 102 -126 92 -234 153 -305 174 -27 8 -294 72 -400 96 -35 8 -201
46 -275 64 -278 65 -317 72 -430 78 -205 10 -384 -15 -755 -102 -85 -20 -166
-39 -179 -42 -14 -2 -28 -6 -33 -9 -8 -5 -77 56 -183 161 -22 23 -60 56 -85
75 -25 19 -54 44 -65 56 -11 12 -46 43 -78 68 -92 75 -97 79 -149 124 -27 23
-52 42 -56 42 -4 0 -20 13 -37 28 -16 15 -61 51 -100 80 -38 28 -74 55 -80 60
-5 4 -32 23 -60 42 -49 34 -125 90 -155 113 -9 7 -38 28 -65 46 -28 19 -52 37
-55 40 -3 4 -34 26 -70 50 -36 25 -77 54 -92 65 -66 52 -384 259 -441 288 -23
12 -62 35 -87 52 -25 17 -67 41 -95 55 -27 13 -68 37 -90 51 -22 15 -97 55
-168 90 -70 34 -143 73 -163 86 -19 13 -39 24 -43 24 -5 0 -46 17 -92 39 -46
21 -106 48 -134 61 -27 12 -75 33 -105 47 -107 48 -118 53 -129 53 -6 0 -25 6
-43 14 -56 24 -242 94 -268 101 -14 3 -34 10 -45 15 -11 5 -56 21 -100 35 -44
14 -89 30 -100 35 -11 5 -45 16 -75 24 -30 8 -80 22 -110 31 -150 44 -365 99
-525 135 -71 16 -206 48 -300 70 -362 86 -655 146 -825 170 -41 6 -86 12 -100
15 -289 48 -703 75 -1118 75 -443 0 -713 -20 -1182 -86 -33 -5 -122 -20 -165
-28 -11 -2 -40 -7 -65 -12 -25 -4 -47 -8 -50 -9 -3 -1 -25 -5 -50 -9 -44 -8
-151 -32 -275 -61 -33 -8 -71 -17 -85 -19 -14 -3 -70 -17 -125 -30 -55 -13
-208 -49 -340 -80 -132 -31 -265 -63 -295 -72 -30 -8 -62 -17 -70 -19 -8 -2
-42 -11 -75 -20 -33 -9 -67 -18 -76 -20 -23 -5 -113 -34 -324 -105 -99 -34
-188 -63 -199 -65 -10 -2 -23 -8 -30 -13 -6 -5 -69 -30 -141 -56 -71 -26 -138
-51 -148 -57 -10 -5 -79 -37 -155 -70 -139 -62 -181 -82 -374 -182 -60 -31
-108 -54 -108 -51 0 3 -26 -12 -57 -32 -32 -21 -87 -53 -123 -72 -36 -19 -72
-41 -80 -48 -8 -7 -42 -27 -75 -45 -33 -17 -79 -45 -103 -60 -24 -16 -45 -29
-47 -29 -5 0 -344 -228 -375 -252 -14 -11 -81 -60 -150 -109 -151 -108 -391
-280 -405 -291 -14 -11 -106 -85 -133 -108 -27 -23 -20 -25 -187 55 -49 23
-110 48 -135 54 -25 7 -55 16 -67 21 -13 6 -34 15 -48 20 -14 6 -35 14 -47 19
-51 20 -87 31 -165 51 -45 11 -103 30 -130 41 -51 23 -155 51 -453 123 -391
95 -566 134 -590 134 -14 0 -65 9 -115 20 -124 27 -201 40 -260 41 -27 1 -88
10 -135 21 -100 22 -163 31 -245 35 -33 2 -100 6 -150 9 -227 14 -848 8 -925
-10 -14 -3 -59 -7 -100 -9 -139 -8 -180 -13 -350 -44 -30 -6 -107 -19 -170
-30 -180 -32 -172 -30 -270 -52 -25 -6 -52 -12 -60 -14 -98 -21 -673 -157
-697 -165 -18 -6 -42 -13 -55 -16 -40 -9 -61 -14 -119 -27 l-57 -14 -16 71
c-8 39 -31 139 -51 221 -19 83 -37 159 -39 170 -18 86 -72 294 -97 373 -46
144 -59 186 -59 195 0 4 -7 24 -16 45 -21 48 -50 138 -59 182 -4 19 -13 44
-20 56 -27 43 -105 193 -105 203 0 6 -18 36 -40 67 -22 32 -40 64 -40 73 0 29
-153 281 -275 455 -161 229 -221 310 -251 341 -17 18 -53 62 -79 99 -26 37
-86 108 -134 158 -155 164 -280 288 -288 288 -4 0 -29 19 -54 43 -70 64 -268
216 -529 406 -36 26 -97 70 -136 99 -39 29 -81 52 -92 52 -11 0 -27 6 -34 13
-21 21 -138 97 -149 97 -6 0 -25 11 -42 23 -18 13 -62 33 -98 45 -37 12 -93
35 -126 51 -32 17 -83 37 -113 45 -70 18 -90 26 -90 36 0 4 -42 18 -92 30 -51
13 -97 25 -103 29 -5 3 -14 6 -20 8 -5 1 -145 34 -310 74 -165 39 -330 77
-368 85 -37 7 -72 16 -77 19 -5 3 -31 8 -57 11 -27 3 -66 11 -88 17 -83 22
-194 38 -225 32 -13 -3 -49 2 -79 9 -62 15 -143 16 -431 6z"/>
</g>
</svg>
